# xmcd
#
# Track frame offsets:
#	150
#	22012
#	39439
#	63773
#	87784
#	117481
#	156146
#	183065
#	202201
#	217073
#	242847
#
# Disc length: 3797 seconds
#
# Revision: 0
# Processed by: cddbd v1.5.2PL0 Copyright (c) Steve Scherf et al.
# Submitted via: dBpowerAMP V4.0
#
DISCID=960ed30b
DTITLE=Duke Robillard's - World Full Of Blues Disk # 2 (Bonus Disk)
DYEAR=2007
DGENRE=Blues
TTITLE0=Gonna' get you Told
TTITLE1=Monkey Arms
TTITLE2=Who Do You Love
TTITLE3=Low Side Of the Road
TTITLE4=Too Much Stuff
TTITLE5=Blues Nightmare
TTITLE6=Bounce For Billy
TTITLE7=Bright lights, Big City 
TTITLE8=Steppin' Out
TTITLE9=Anything It Takes
TTITLE10=Stretchin'
EXTD=
EXTT0=
EXTT1=
EXTT2=
EXTT3=
EXTT4=
EXTT5=
EXTT6=
EXTT7=
EXTT8=
EXTT9=
EXTT10=
PLAYORDER=
